<svg width="38" height="38" viewBox="0 0 38 38" fill="none" xmlns="http://www.w3.org/2000/svg">
<path d="M19 0C8.50651 0 0 8.50651 0 19C0 29.4935 8.50651 38 19 38C29.4935 38 38 29.4935 38 19C38 8.50651 29.4935 0 19 0ZM16.9928 10.8017C18.9371 10.8017 20.5137 12.2005 20.5137 14.5933C20.5137 16.986 18.9375 18.9261 16.9928 18.9261C15.0488 18.9261 13.4723 16.986 13.4723 14.5933C13.4723 12.2005 15.0488 10.8017 16.9928 10.8017ZM16.9928 28.4156C14.3171 28.416 12.0228 27.6404 10.1333 26.1896C10.1401 25.8189 10.1481 25.1307 10.1574 25.0492C10.4998 21.9053 13.3849 20.7864 16.8931 20.7864C16.9273 20.7864 16.959 20.7881 16.9928 20.789C17.0257 20.7881 17.0586 20.7864 17.092 20.7864C20.6015 20.7864 23.4857 21.9049 23.8285 25.0492C23.8374 25.1307 23.8458 25.8189 23.8522 26.1896C21.972 27.6121 19.6392 28.4156 16.9928 28.4156ZM30.4 14.0862H27.1328V17.3533H25.8978V14.0862H22.6311V12.8516H25.8978V9.58444H27.1328V12.8516H30.4V14.0862Z" fill="#F66E43"/>
</svg>
