<svg width="48" height="49" viewBox="0 0 48 49" fill="none" xmlns="http://www.w3.org/2000/svg">
<rect y="0.5" width="48" height="48" rx="6" fill="#FFF3EF"/>
<g clip-path="url(#clip0)">
<path d="M33.158 30.2963C33.158 30.7354 32.9805 31.1566 32.6647 31.4672C32.3488 31.7777 31.9204 31.9522 31.4736 31.9522H16.3143C15.8675 31.9522 15.4391 31.7777 15.1232 31.4672C14.8073 31.1566 14.6299 30.7354 14.6299 30.2963V21.1887C14.6299 20.7496 14.8073 20.3284 15.1232 20.0178C15.4391 19.7073 15.8675 19.5328 16.3143 19.5328H19.683L21.3674 17.049H26.4205L28.1049 19.5328H31.4736C31.9204 19.5328 32.3488 19.7073 32.6647 20.0178C32.9805 20.3284 33.158 20.7496 33.158 21.1887V30.2963Z" stroke="#F66E43" stroke-width="1.5" stroke-linecap="round" stroke-linejoin="round"/>
<path d="M23.8941 28.6395C25.7546 28.6395 27.2629 27.1568 27.2629 25.3277C27.2629 23.4986 25.7546 22.0159 23.8941 22.0159C22.0336 22.0159 20.5254 23.4986 20.5254 25.3277C20.5254 27.1568 22.0336 28.6395 23.8941 28.6395Z" stroke="#F66E43" stroke-width="1.5" stroke-linecap="round" stroke-linejoin="round"/>
</g>
<defs>
<clipPath id="clip0">
<rect width="20.2125" height="19.871" fill="white" transform="translate(13.7876 14.5647)"/>
</clipPath>
</defs>
</svg>
