<svg width="48" height="48" viewBox="0 0 48 48" fill="none" xmlns="http://www.w3.org/2000/svg">
<rect width="48" height="48" rx="24" fill="#CDCDCD"/>
<path d="M24 10.667C16.64 10.667 10.6667 16.6403 10.6667 24.0003C10.6667 31.3603 16.64 37.3337 24 37.3337C31.36 37.3337 37.3333 31.3603 37.3333 24.0003C37.3333 16.6403 31.36 10.667 24 10.667ZM24 14.667C26.2133 14.667 28 16.4537 28 18.667C28 20.8803 26.2133 22.667 24 22.667C21.7867 22.667 20 20.8803 20 18.667C20 16.4537 21.7867 14.667 24 14.667ZM24 33.6003C20.6667 33.6003 17.72 31.8937 16 29.307C16.04 26.6537 21.3333 25.2003 24 25.2003C26.6533 25.2003 31.96 26.6537 32 29.307C30.28 31.8937 27.3333 33.6003 24 33.6003Z" fill="white"/>
</svg>
