<svg width="36" height="36" viewBox="0 0 36 36" fill="none" xmlns="http://www.w3.org/2000/svg">
<rect width="36" height="36" rx="18" fill="#F66E43"/>
<path fill-rule="evenodd" clip-rule="evenodd" d="M22.6667 12.1978C22.5176 12.1978 22.3699 12.2271 22.2321 12.2842C22.0944 12.3413 21.9692 12.4249 21.8637 12.5304L21.4467 12.9474L23.0527 14.5534L23.4697 14.1364C23.5752 14.0309 23.6588 13.9057 23.7159 13.768C23.773 13.6302 23.8023 13.4825 23.8023 13.3334C23.8023 13.1842 23.773 13.0366 23.7159 12.8988C23.6588 12.761 23.5752 12.6358 23.4697 12.5304C23.3643 12.4249 23.2391 12.3413 23.1013 12.2842C22.9635 12.2271 22.8159 12.1978 22.6667 12.1978ZM21.992 15.6141L20.386 14.0081L13.0046 21.3895L12.4023 23.5978L14.6106 22.9955L21.992 15.6141ZM21.6581 10.8984C21.9779 10.7659 22.3206 10.6978 22.6667 10.6978C23.0128 10.6978 23.3556 10.7659 23.6753 10.8984C23.9951 11.0308 24.2856 11.225 24.5304 11.4697C24.7751 11.7144 24.9693 12.005 25.1017 12.3248C25.2342 12.6445 25.3023 12.9873 25.3023 13.3334C25.3023 13.6795 25.2342 14.0222 25.1017 14.342C24.9693 14.6617 24.7751 14.9523 24.5304 15.197L15.5304 24.197C15.4381 24.2893 15.3233 24.3559 15.1974 24.3903L11.5307 25.3903C11.2711 25.4611 10.9934 25.3873 10.8031 25.197C10.6127 25.0067 10.539 24.729 10.6098 24.4694L11.6098 20.8027C11.6442 20.6768 11.7108 20.562 11.8031 20.4697L20.8031 11.4697C21.0478 11.225 21.3383 11.0308 21.6581 10.8984Z" fill="white"/>
</svg>
