<svg width="48" height="48" viewBox="0 0 48 48" fill="none" xmlns="http://www.w3.org/2000/svg">
<rect width="48" height="48" rx="6" fill="#FFF3EF"/>
<path d="M30.32 12H17.68C16.1744 12.0025 14.7311 12.6018 13.6664 13.6664C12.6018 14.7311 12.0025 16.1744 12 17.68V30.32C12.0025 31.8256 12.6018 33.2689 13.6664 34.3336C14.7311 35.3982 16.1744 35.9975 17.68 36H30.32C31.8256 35.9975 33.2689 35.3982 34.3336 34.3336C35.3982 33.2689 35.9975 31.8256 36 30.32V17.68C35.9975 16.1744 35.3982 14.7311 34.3336 13.6664C33.2689 12.6018 31.8256 12.0025 30.32 12ZM17.68 13.6H30.32C31.4014 13.6021 32.438 14.0326 33.2027 14.7973C33.9674 15.562 34.3979 16.5986 34.4 17.68V25.7512L32.884 26.5088C31.5471 27.1748 30.0478 27.445 28.5625 27.2877C27.0772 27.1304 25.6677 26.5521 24.5 25.6208C23.0928 24.4999 21.395 23.8038 19.6059 23.6142C17.8169 23.4246 16.0109 23.7494 14.4 24.5504L13.6 24.9504V17.68C13.6021 16.5986 14.0326 15.562 14.7973 14.7973C15.562 14.0326 16.5986 13.6021 17.68 13.6ZM30.32 34.4H17.68C16.5986 34.3979 15.562 33.9674 14.7973 33.2027C14.0326 32.438 13.6021 31.4014 13.6 30.32V26.74L15.116 25.9824C16.4529 25.3164 17.9522 25.0462 19.4375 25.2035C20.9228 25.3608 22.3323 25.9391 23.5 26.8704C24.9069 27.992 26.6048 28.6884 28.394 28.8779C30.1833 29.0674 31.9894 28.742 33.6 27.94L34.4 27.54V30.32C34.3979 31.4014 33.9674 32.438 33.2027 33.2027C32.438 33.9674 31.4014 34.3979 30.32 34.4Z" fill="#F66E43"/>
<path d="M28.7999 21.6C29.2746 21.6 29.7386 21.4593 30.1333 21.1956C30.5279 20.9319 30.8356 20.557 31.0172 20.1185C31.1989 19.6799 31.2464 19.1974 31.1538 18.7318C31.0612 18.2663 30.8326 17.8386 30.497 17.503C30.1613 17.1673 29.7337 16.9388 29.2681 16.8462C28.8026 16.7536 28.32 16.8011 27.8815 16.9827C27.4429 17.1644 27.0681 17.472 26.8044 17.8667C26.5407 18.2614 26.3999 18.7254 26.3999 19.2C26.3999 19.8366 26.6528 20.447 27.1028 20.8971C27.5529 21.3472 28.1634 21.6 28.7999 21.6ZM28.7999 18.4C28.9581 18.4 29.1128 18.447 29.2444 18.5349C29.3759 18.6228 29.4785 18.7477 29.539 18.8939C29.5996 19.0401 29.6154 19.2009 29.5845 19.3561C29.5537 19.5113 29.4775 19.6539 29.3656 19.7657C29.2537 19.8776 29.1112 19.9538 28.956 19.9847C28.8008 20.0155 28.6399 19.9997 28.4938 19.9392C28.3476 19.8786 28.2226 19.7761 28.1347 19.6445C28.0468 19.5129 27.9999 19.3583 27.9999 19.2C27.9999 18.9879 28.0842 18.7844 28.2342 18.6344C28.3842 18.4843 28.5877 18.4 28.7999 18.4Z" fill="#F66E43"/>
</svg>
