<svg width="48" height="49" viewBox="0 0 48 49" fill="none" xmlns="http://www.w3.org/2000/svg">
<rect y="0.5" width="48" height="48" rx="6" fill="#FFF3EF"/>
<g clip-path="url(#clip0)">
<path d="M33 22.5C33 29.5 24 35.5 24 35.5C24 35.5 15 29.5 15 22.5C15 20.1131 15.9482 17.8239 17.636 16.136C19.3239 14.4482 21.6131 13.5 24 13.5C26.3869 13.5 28.6761 14.4482 30.364 16.136C32.0518 17.8239 33 20.1131 33 22.5Z" stroke="#F66E43" stroke-width="2" stroke-linecap="round" stroke-linejoin="round"/>
<path d="M24 25.5C25.6569 25.5 27 24.1569 27 22.5C27 20.8431 25.6569 19.5 24 19.5C22.3431 19.5 21 20.8431 21 22.5C21 24.1569 22.3431 25.5 24 25.5Z" stroke="#F66E43" stroke-width="2" stroke-linecap="round" stroke-linejoin="round"/>
</g>
<defs>
<clipPath id="clip0">
<rect width="24" height="24" fill="white" transform="translate(12 12.5)"/>
</clipPath>
</defs>
</svg>
