<svg width="40" height="40" viewBox="0 0 40 40" fill="none" xmlns="http://www.w3.org/2000/svg">
<path d="M35 38.3333C33.2833 38.3333 31.5666 37.9167 30 37.0833C26.85 38.75 23.15 38.75 20 37.0833C16.8499 38.75 13.15 38.75 9.99995 37.0833C8.41662 37.9167 6.71662 38.3333 4.99995 38.3333H3.33328V35H4.99995C6.73328 35 8.46662 34.4167 9.99995 33.3333C13.0499 35.5 16.9499 35.5 20 33.3333C23.0499 35.5 26.9499 35.5 30 33.3333C31.5166 34.4167 33.2666 35 35 35H36.6666V38.3333H35ZM28.3333 2.5C26.5 2.5 25 4 25 5.83333C25 7.66667 26.5 9.16667 28.3333 9.16667C30.1666 9.16667 31.6666 7.66667 31.6666 5.83333C31.6666 4 30.1666 2.5 28.3333 2.5ZM24.05 14.1333L20.2999 16.6667L26.6666 21.6667V28.0667C27.5499 28.7 28.3833 29.3667 29.15 30.0167C28.0166 30.9833 26.5666 31.6667 25 31.6667C23 31.6667 21.2166 30.5667 20 29.1667C18.7833 30.5667 16.9999 31.6667 14.9999 31.6667C14.4499 31.6667 13.9166 31.5833 13.4 31.4333C8.64995 28.1667 4.99995 24.5333 4.99995 22.1333C4.99995 20.4167 6.68328 20 8.08328 20C9.71662 20 11.8833 20.5167 14.25 21.3833L13.3666 16.2167C13.1833 15.1 13.6666 13.9167 14.6666 13.2333L18.2499 10.8167L14.9166 10.2L10.2166 13.4167L8.33328 10.6667L14.1666 6.66667L23.4166 8.38333C24.1666 8.53333 24.9666 9 25.45 9.86667L26.9166 12.45C28.3499 14.9667 31.0666 16.6667 34.1666 16.6667V20C29.85 20 26.0666 17.6333 24.05 14.1333ZM17.1666 18.5L17.8999 22.9167C19.4333 23.6167 22.0333 25.0333 23.3333 25.8333V23.3333L17.1666 18.5Z" fill="white"/>
</svg>
