<svg width="40" height="40" viewBox="0 0 40 40" fill="none" xmlns="http://www.w3.org/2000/svg">
<path d="M23.1828 8.62C23.1828 9.31487 22.9067 9.98127 22.4154 10.4726C21.9241 10.964 21.2576 11.24 20.5628 11.24C19.8679 11.24 19.2015 10.964 18.7102 10.4726C18.2188 9.98127 17.9428 9.31487 17.9428 8.62C17.9428 7.92513 18.2188 7.25872 18.7102 6.76738C19.2015 6.27604 19.8679 6 20.5628 6C21.2576 6 21.9241 6.27604 22.4154 6.76738C22.9067 7.25872 23.1828 7.92513 23.1828 8.62ZM25.7928 15.33C25.9931 15.047 26.2925 14.8498 26.6316 14.7775C26.9707 14.7052 27.3245 14.7633 27.6228 14.94C27.768 15.0222 27.8948 15.1333 27.9954 15.2664C28.096 15.3995 28.1682 15.5518 28.2076 15.714C28.2469 15.8761 28.2526 16.0446 28.2243 16.2091C28.1959 16.3735 28.1342 16.5304 28.0428 16.67C27.5471 17.3317 26.8994 17.8643 26.1545 18.2229C25.4095 18.5814 24.5891 18.7554 23.7628 18.73C23.229 18.7321 22.6974 18.6615 22.1828 18.52C21.5483 18.3346 20.9569 18.0253 20.4428 17.61C20.5394 18.5869 20.9181 19.5146 21.5328 20.28C21.5532 20.3078 21.57 20.338 21.5828 20.37V20.42C26.9628 24.42 26.7728 27.75 26.5828 30.69C26.538 31.416 26.538 32.144 26.5828 32.87C26.5868 33.0814 26.549 33.2916 26.4718 33.4884C26.3945 33.6853 26.2792 33.865 26.1325 34.0173C25.9858 34.1696 25.8105 34.2915 25.6167 34.376C25.4228 34.4606 25.2142 34.5061 25.0028 34.51H24.9228C24.4951 34.5404 24.0726 34.4011 23.7469 34.1222C23.4212 33.8433 23.2185 33.4473 23.1828 33.02C23.1516 32.1795 23.1716 31.338 23.2428 30.5C23.3728 28.4 23.4728 26.74 21.5828 24.69C22.3828 28.88 20.2628 30.6 17.8628 32.53C17.2728 33 16.6728 33.53 16.0528 34.05C15.739 34.3369 15.328 34.4941 14.9028 34.49C14.4554 34.4931 14.0246 34.3208 13.7028 34.01C13.5497 33.8695 13.4275 33.6987 13.3439 33.5085C13.2603 33.3183 13.2172 33.1128 13.2172 32.905C13.2172 32.6972 13.2603 32.4917 13.3439 32.3015C13.4275 32.1113 13.5497 31.9405 13.7028 31.8C14.4028 31.16 15.0928 30.61 15.7028 30.12C18.3328 28 19.3228 27.21 17.5728 22.85C17.5369 22.7527 17.5101 22.6522 17.4928 22.55C16.7098 21.5341 16.1672 20.354 15.9056 19.0983C15.6441 17.8426 15.6705 16.544 15.9828 15.3C14.4228 16.56 13.5628 18.85 13.6328 21.6C13.6315 21.7694 13.5968 21.9369 13.5308 22.0929C13.4647 22.2489 13.3686 22.3904 13.2479 22.5092C13.1272 22.6281 12.9842 22.722 12.8272 22.7856C12.6702 22.8492 12.5022 22.8813 12.3328 22.88C11.9956 22.8909 11.6675 22.7693 11.4189 22.5413C11.1703 22.3132 11.0209 21.9969 11.0028 21.66C10.9328 18.15 12.1828 15.13 14.3228 13.42C15.5182 12.455 17.0065 11.926 18.5428 11.92C19.1495 11.7722 19.7898 11.8616 20.3328 12.17C20.6728 12.3761 20.9549 12.6651 21.1528 13.01C21.1528 13.01 21.1528 13.01 21.1528 13.06C21.1561 13.0832 21.1561 13.1068 21.1528 13.13C21.1931 13.2092 21.2234 13.2932 21.2428 13.38C21.3456 13.6856 21.3731 14.0115 21.3228 14.33C21.3564 14.7474 21.5202 15.1438 21.7912 15.4631C22.0621 15.7825 22.4264 16.0087 22.8328 16.11C23.3401 16.2866 23.8889 16.3067 24.4078 16.1676C24.9267 16.0285 25.3918 15.7367 25.7428 15.33H25.7928Z" fill="white"/>
</svg>
