<svg width="40" height="40" viewBox="0 0 40 40" fill="none" xmlns="http://www.w3.org/2000/svg">
<path d="M35.9666 26.8166L34.15 14.0499C33.6833 10.7666 30.8666 8.33325 27.55 8.33325H12.45C9.13331 8.33325 6.31664 10.7666 5.84998 14.0499L4.03331 26.8166C3.66664 29.3833 5.64998 31.6666 8.23331 31.6666C9.36664 31.6666 10.4333 31.2166 11.2333 30.4166L15 26.6666H25L28.75 30.4166C29.55 31.2166 30.6333 31.6666 31.75 31.6666C34.35 31.6666 36.3333 29.3833 35.9666 26.8166ZM18.3333 18.3333H15V21.6666H13.3333V18.3333H9.99998V16.6666H13.3333V13.3333H15V16.6666H18.3333V18.3333ZM25 16.6666C24.0833 16.6666 23.3333 15.9166 23.3333 14.9999C23.3333 14.0833 24.0833 13.3333 25 13.3333C25.9166 13.3333 26.6666 14.0833 26.6666 14.9999C26.6666 15.9166 25.9166 16.6666 25 16.6666ZM28.3333 21.6666C27.4166 21.6666 26.6666 20.9166 26.6666 19.9999C26.6666 19.0833 27.4166 18.3333 28.3333 18.3333C29.25 18.3333 30 19.0833 30 19.9999C30 20.9166 29.25 21.6666 28.3333 21.6666Z" fill="#262626"/>
</svg>
