<svg width="40" height="40" viewBox="0 0 40 40" fill="none" xmlns="http://www.w3.org/2000/svg">
<path d="M19.1201 15.7802L25.1201 9.78018C25.3184 9.58396 25.4759 9.35035 25.5833 9.09288C25.6908 8.8354 25.7461 8.55917 25.7461 8.28018C25.7461 8.00118 25.6908 7.72495 25.5833 7.46747C25.4759 7.21 25.3184 6.97639 25.1201 6.78018L22.4501 4.20018L24.2201 2.43018L26.8701 5.08018C27.7256 5.94349 28.2056 7.10974 28.2056 8.32518C28.2056 9.54061 27.7256 10.7069 26.8701 11.5702L20.8701 17.5702L19.1201 15.7802ZM15.7801 12.4502L16.7801 11.4502C17.1649 11.0576 17.3804 10.5299 17.3804 9.98018C17.3804 9.43049 17.1649 8.90273 16.7801 8.51018L15.7801 7.51018L17.5501 5.73018L18.5501 6.73018C18.9758 7.15552 19.3135 7.6606 19.544 8.21654C19.7744 8.77248 19.893 9.36838 19.893 9.97018C19.893 10.572 19.7744 11.1679 19.544 11.7238C19.3135 12.2798 18.9758 12.7848 18.5501 13.2102L17.5501 14.2102L15.7801 12.4502ZM24.2201 20.8802L33.5301 11.5702C33.7234 11.3758 33.9532 11.2215 34.2063 11.1162C34.4595 11.0109 34.7309 10.9567 35.0051 10.9567C35.2792 10.9567 35.5507 11.0109 35.8038 11.1162C36.057 11.2215 36.2868 11.3758 36.4801 11.5702L37.4801 12.5702L39.2401 10.8002L38.2401 9.80018C37.3785 8.94525 36.2139 8.46551 35.0001 8.46551C33.7863 8.46551 32.6217 8.94525 31.7601 9.80018L22.4401 19.1202L24.2201 20.8802ZM3.33008 36.6702L26.6701 28.3302L11.6701 13.3302L3.33008 36.6702ZM28.4301 19.8002L25.7801 22.4502L27.5501 24.2202L30.2001 21.5702C30.3934 21.3758 30.6232 21.2215 30.8763 21.1162C31.1295 21.0109 31.4009 20.9567 31.6751 20.9567C31.9492 20.9567 32.2207 21.0109 32.4738 21.1162C32.727 21.2215 32.9568 21.3758 33.1501 21.5702L35.8301 24.2502L37.6001 22.4802L34.9201 19.8002C34.0568 18.9446 32.8905 18.4646 31.6751 18.4646C30.4596 18.4646 29.2934 18.9446 28.4301 19.8002Z" fill="white"/>
</svg>
