<svg width="40" height="40" viewBox="0 0 40 40" fill="none" xmlns="http://www.w3.org/2000/svg">
<path d="M31.6667 1.66675L23.3334 10.0001V28.3334L31.6667 20.8334V1.66675ZM1.66669 10.0001V34.4167C1.66669 34.8334 2.08335 35.2501 2.50002 35.2501C2.66669 35.2501 2.75002 35.1667 2.91669 35.1667C5.16669 34.0834 8.41669 33.3334 10.8334 33.3334C14.0834 33.3334 17.5834 34.0001 20 35.8334V10.0001C17.5834 8.16675 14.0834 7.50008 10.8334 7.50008C7.58335 7.50008 4.08335 8.16675 1.66669 10.0001ZM38.3334 32.5001V10.0001C37.3334 9.25008 36.25 8.75008 35 8.33341V30.8334C33.1667 30.2501 31.1667 30.0001 29.1667 30.0001C26.3334 30.0001 22.25 31.0834 20 32.5001V35.8334C22.25 34.4167 26.3334 33.3334 29.1667 33.3334C31.9167 33.3334 34.75 33.8334 37.0834 35.0834C37.25 35.1667 37.3334 35.1667 37.5 35.1667C37.9167 35.1667 38.3334 34.7501 38.3334 34.3334V32.5001Z" fill="white"/>
</svg>
