<svg width="40" height="40" viewBox="0 0 40 40" fill="none" xmlns="http://www.w3.org/2000/svg">
<path d="M18 4V19.58L13 22.48V5.31C14.5885 4.61634 16.2754 4.17437 18 4ZM3 20.58C3.00426 17.9949 3.60898 15.4461 4.76647 13.1346C5.92396 10.823 7.60259 8.81201 9.67 7.26V24.43L4.49 27.43C3.51108 25.2789 3.00307 22.9434 3 20.58ZM19.67 22.5L6.15 30.3C7.16278 31.7043 8.39129 32.9396 9.79 33.96L24.67 25.4L19.67 22.5ZM21.34 19.58V13.85L36.22 22.45C36.0282 24.1782 35.5658 25.8654 34.85 27.45L21.34 19.58ZM13.12 35.88C16.6033 37.369 20.4903 37.6257 24.1392 36.6075C27.7881 35.5894 30.9807 33.3574 33.19 30.28L28 27.28L13.12 35.88ZM21.34 4C25.1057 4.37805 28.6301 6.02854 31.3316 8.67915C34.0331 11.3298 35.7504 14.8221 36.2 18.58L21.34 10V4Z" fill="white"/>
</svg>
