<svg id="svgIcons" xmlns="http://www.w3.org/2000/svg" style="display: none;">
	<symbol id="copy" fill="" viewBox="0 0 512 512">
		<path d="m512 0h-272.714l-68.787 68.787v2.009h-101.712l-68.787 68.786v372.418h341.501v-70.795h170.499zm-262.767 32.479v46.256h-46.255zm-170.499 70.795v46.256h-46.255zm232.767 378.726h-281.501v-302.47h78.734v-78.734h61.765v108.734h-97.332v30h97.332v30h-97.332v30h97.332v30h-97.332v30h97.332v81.674h141.002zm170.499-70.795h-281.501v-302.47h78.734v-78.735h202.767z" fill=""/>
		<path d="m243.667 138.734h195.166v30h-195.166z" fill=""/>
		<path d="m243.667 198.734h195.166v30h-195.166z" fill=""/>
		<path d="m243.667 258.734h195.166v30h-195.166z" fill=""/>
	</symbol>

	<svg id="hide" width="18" height="18" viewBox="0 0 18 18" fill="none" xmlns="http://www.w3.org/2000/svg">
		<path d="M10.59 10.59C10.384 10.8111 10.1356 10.9884 9.85961 11.1114C9.58362 11.2343 9.28568 11.3005 8.98357 11.3058C8.68146 11.3111 8.38137 11.2555 8.10121 11.1424C7.82104 11.0292 7.56654 10.8608 7.35288 10.6471C7.13923 10.4335 6.97079 10.179 6.85763 9.89881C6.74447 9.61865 6.68889 9.31856 6.69423 9.01645C6.69956 8.71434 6.76568 8.4164 6.88866 8.1404C7.01163 7.86441 7.18894 7.61601 7.41 7.41002M13.455 13.455C12.1729 14.4323 10.6118 14.9737 9 15C3.75 15 0.75 9.00002 0.75 9.00002C1.68292 7.26144 2.97685 5.74247 4.545 4.54502L13.455 13.455ZM7.425 3.18002C7.94125 3.05918 8.4698 2.99877 9 3.00002C14.25 3.00002 17.25 9.00002 17.25 9.00002C16.7947 9.85172 16.2518 10.6536 15.63 11.3925L7.425 3.18002Z" stroke="#262D2E" stroke-opacity="0.6" stroke-width="1.5" stroke-linecap="round" stroke-linejoin="round"/>
		<path d="M0.75 0.75L17.25 17.25" stroke="#262D2E" stroke-opacity="0.6" stroke-width="1.5" stroke-linecap="round" stroke-linejoin="round"/>
	</svg>

	<svg id="backButton" width="11" height="20" viewBox="0 0 11 20" fill="none" xmlns="http://www.w3.org/2000/svg">
		<path d="M9.875 18.75L1.125 10L9.875 1.25" stroke="#18161D" stroke-width="2" stroke-linecap="round" stroke-linejoin="round"/>
	</svg>

	<svg id="backButtonWhite" width="11" height="20" viewBox="0 0 11 20" fill="none" xmlns="http://www.w3.org/2000/svg">
		<path d="M9.875 18.75L1.125 10L9.875 1.25" stroke="#ffffff" stroke-width="2" stroke-linecap="round" stroke-linejoin="round"/>
	</svg>
	
	<svg id="successDiv" width="138" height="138" viewBox="0 0 138 138" fill="none" xmlns="http://www.w3.org/2000/svg">
		<g filter="url(#filter0_d)">
			<circle cx="69" cy="65" r="55" fill="white"/>
		</g>
		<path d="M50.8965 65.1324L62.8786 77.3104L87.1034 52.6897" stroke="#F66E43" stroke-width="8" stroke-linecap="round" stroke-linejoin="round"/>
		<defs>
			<filter id="filter0_d" x="0" y="0" width="138" height="138" filterUnits="userSpaceOnUse" color-interpolation-filters="sRGB">
				<feFlood flood-opacity="0" result="BackgroundImageFix"/>
				<feColorMatrix in="SourceAlpha" type="matrix" values="0 0 0 0 0 0 0 0 0 0 0 0 0 0 0 0 0 0 127 0" result="hardAlpha"/>
				<feOffset dy="4"/>
				<feGaussianBlur stdDeviation="7"/>
				<feColorMatrix type="matrix" values="0 0 0 0 0 0 0 0 0 0 0 0 0 0 0 0 0 0 0.25 0"/>
				<feBlend mode="normal" in2="BackgroundImageFix" result="effect1_dropShadow"/>
				<feBlend mode="normal" in="SourceGraphic" in2="effect1_dropShadow" result="shape"/>
			</filter>
		</defs>
	</svg>

	<svg id="rightIcon" width="46" height="34" viewBox="0 0 46 34" fill="none" xmlns="http://www.w3.org/2000/svg">
		<path d="M4.89648 17.1324L16.8786 29.3104L41.1034 4.6897" stroke="#F66E43" stroke-width="8" stroke-linecap="round" stroke-linejoin="round"/>
	</svg>

	<svg id="customCheckboxIcon" width="35" height="35" viewBox="0 0 35 35" fill="none" xmlns="http://www.w3.org/2000/svg">
		<circle cx="17.5" cy="17.5" r="17.5" fill="white"/>
		<path d="M23 14.75L14.75 23L11 19.25" stroke="#F66E43" stroke-width="3" stroke-linecap="round" stroke-linejoin="round"/>
	</svg>

	<svg id="notification" viewBox="0 0 24 24" fill="none" xmlns="http://www.w3.org/2000/svg">
		<path d="M18 8C18 6.4087 17.3679 4.88258 16.2426 3.75736C15.1174 2.63214 13.5913 2 12 2C10.4087 2 8.88258 2.63214 7.75736 3.75736C6.63214 4.88258 6 6.4087 6 8C6 15 3 17 3 17H21C21 17 18 15 18 8Z" stroke="black" stroke-width="2" stroke-linecap="round" stroke-linejoin="round"/>
		<path d="M13.73 21C13.5542 21.3031 13.3019 21.5547 12.9982 21.7295C12.6946 21.9044 12.3504 21.9965 12 21.9965C11.6496 21.9965 11.3054 21.9044 11.0018 21.7295C10.6982 21.5547 10.4458 21.3031 10.27 21" stroke="black" stroke-width="2" stroke-linecap="round" stroke-linejoin="round"/>
	</svg>	

	<svg id="cameraIcon" width="26" height="26" viewBox="0 0 26 26" fill="none" xmlns="http://www.w3.org/2000/svg">
		<path d="M22.1249 18.8338C22.1249 19.2758 21.9405 19.6998 21.6123 20.0123C21.2841 20.3249 20.839 20.5005 20.3749 20.5005H4.62488C4.16075 20.5005 3.71563 20.3249 3.38744 20.0123C3.05925 19.6998 2.87488 19.2758 2.87488 18.8338V9.66715C2.87488 9.22513 3.05925 8.8012 3.38744 8.48864C3.71563 8.17608 4.16075 8.00049 4.62488 8.00049H8.12488L9.87488 5.50049H15.1249L16.8749 8.00049H20.3749C20.839 8.00049 21.2841 8.17608 21.6123 8.48864C21.9405 8.8012 22.1249 9.22513 22.1249 9.66715V18.8338Z" stroke="#865CD0" stroke-width="1.5" stroke-linecap="round" stroke-linejoin="round"/>
		<path d="M12.5 17.1662C14.433 17.1662 16 15.6738 16 13.8328C16 11.9919 14.433 10.4995 12.5 10.4995C10.567 10.4995 9 11.9919 9 13.8328C9 15.6738 10.567 17.1662 12.5 17.1662Z" stroke="#865CD0" stroke-width="1.5" stroke-linecap="round" stroke-linejoin="round"/>
	</svg>
	
	<svg id="mediaRemoveIcon" width="18" height="18" viewBox="0 0 18 18" fill="none" xmlns="http://www.w3.org/2000/svg">
		<circle cx="9" cy="9" r="9" fill="white"/>
		<path fill-rule="evenodd" clip-rule="evenodd" d="M9.00065 10.0068L6.00621 13.0012L5 11.995L7.99443 9.00059L5.00085 6.00701L6.00706 5.0008L9.00065 7.99438L11.995 5L13.0012 6.00621L10.0069 9.00059L13.0021 11.9958L11.9959 13.002L9.00065 10.0068Z" fill="#F66E43"/>
	</svg>

	<svg id="searchIcon" viewBox="0 0 24 24" fill="none" xmlns="http://www.w3.org/2000/svg">
		<path d="M11 19C15.4183 19 19 15.4183 19 11C19 6.58172 15.4183 3 11 3C6.58172 3 3 6.58172 3 11C3 15.4183 6.58172 19 11 19Z" stroke="#18161D" stroke-width="2" stroke-linecap="round" stroke-linejoin="round"/>
		<path d="M21 21.0004L16.65 16.6504" stroke="#18161D" stroke-width="2" stroke-linecap="round" stroke-linejoin="round"/>
	</svg>

	<svg id="removePerson" width="24" height="24" viewBox="0 0 24 24" fill="none" xmlns="http://www.w3.org/2000/svg">
		<path d="M14 8C14 5.79 12.21 4 10 4C7.79 4 6 5.79 6 8C6 10.21 7.79 12 10 12C12.21 12 14 10.21 14 8ZM12 8C12 9.1 11.1 10 10 10C8.9 10 8 9.1 8 8C8 6.9 8.9 6 10 6C11.1 6 12 6.9 12 8Z" fill="#865CD0"/>
		<path d="M2 18V20H18V18C18 15.34 12.67 14 10 14C7.33 14 2 15.34 2 18ZM4 18C4.2 17.29 7.3 16 10 16C12.69 16 15.77 17.28 16 18H4Z" fill="#865CD0"/>
		<path d="M23 10H17V12H23V10Z" fill="#865CD0"/>
	</svg>

	<svg id="addFriend" width="56" height="56" viewBox="0 0 56 56" fill="none" xmlns="http://www.w3.org/2000/svg">
		<path fill-rule="evenodd" clip-rule="evenodd" d="M44.1212 56C44.1212 44.1746 34.2443 34.5882 22.0606 34.5882C9.87687 34.5882 0 44.1746 0 56H3.39394C3.39394 45.9939 11.7513 37.8824 22.0606 37.8824C32.3699 37.8824 40.7273 45.9939 40.7273 56H44.1212ZM22.0606 31.2941C28.6211 31.2941 33.9394 26.1322 33.9394 19.7647C33.9394 13.3972 28.6211 8.23529 22.0606 8.23529C15.5001 8.23529 10.1818 13.3972 10.1818 19.7647C10.1818 26.1322 15.5001 31.2941 22.0606 31.2941ZM22.0606 28C17.3746 28 13.5758 24.3129 13.5758 19.7647C13.5758 15.2165 17.3746 11.5294 22.0606 11.5294C26.7467 11.5294 30.5455 15.2165 30.5455 19.7647C30.5455 24.3129 26.7467 28 22.0606 28ZM49.2121 6.58823V0H45.8182V6.58823H39.0303V9.88235H45.8182V16.4706H49.2121V9.88235H56V6.58823H49.2121Z" fill="#865CD0"/>
	</svg>

	<svg id="searchEvent" width="48" height="54" viewBox="0 0 48 54" fill="none" xmlns="http://www.w3.org/2000/svg">
		<path d="M39.5294 8.52632V9.94737C39.5294 10.7322 38.8973 11.3684 38.1176 11.3684C37.338 11.3684 36.7059 10.7322 36.7059 9.94737V8.52632H25.4118V9.94737C25.4118 10.7322 24.7797 11.3684 24 11.3684C23.2203 11.3684 22.5882 10.7322 22.5882 9.94737V8.52632H11.2941V9.94737C11.2941 10.7322 10.662 11.3684 9.88235 11.3684C9.10266 11.3684 8.47059 10.7322 8.47059 9.94737V8.52632H4.23529C3.45477 8.52632 2.82353 9.16215 2.82353 9.94737V14.2105H45.1765V9.94737C45.1765 9.16215 44.5452 8.52632 43.7647 8.52632H39.5294ZM39.5294 5.68421H43.7647C46.1051 5.68421 48 7.59294 48 9.94737V49.7368C48 52.0913 46.1051 54 43.7647 54H4.23529C1.89494 54 0 52.0913 0 49.7368V9.94737C0 7.59294 1.89494 5.68421 4.23529 5.68421H8.47059V1.42105C8.47059 0.636227 9.10266 0 9.88235 0C10.662 0 11.2941 0.636227 11.2941 1.42105V5.68421H22.5882V1.42105C22.5882 0.636227 23.2203 0 24 0C24.7797 0 25.4118 0.636227 25.4118 1.42105V5.68421H36.7059V1.42105C36.7059 0.636227 37.338 0 38.1176 0C38.8973 0 39.5294 0.636227 39.5294 1.42105V5.68421ZM45.1765 17.0526H2.82353V49.7368C2.82353 50.5221 3.45477 51.1579 4.23529 51.1579H43.7647C44.5452 51.1579 45.1765 50.5221 45.1765 49.7368V17.0526ZM25.4118 34.1053V41.2105C25.4118 41.9953 24.7797 42.6316 24 42.6316C23.2203 42.6316 22.5882 41.9953 22.5882 41.2105V34.1053H15.5294C14.7497 34.1053 14.1176 33.469 14.1176 32.6842C14.1176 31.8994 14.7497 31.2632 15.5294 31.2632H22.5882V24.1579C22.5882 23.3731 23.2203 22.7368 24 22.7368C24.7797 22.7368 25.4118 23.3731 25.4118 24.1579V31.2632H32.4706C33.2503 31.2632 33.8824 31.8994 33.8824 32.6842C33.8824 33.469 33.2503 34.1053 32.4706 34.1053H25.4118Z" fill="#865CD0"/>
	</svg>

	<svg id="searchUpcomingEvent" width="56" height="58" viewBox="0 0 56 58" fill="none" xmlns="http://www.w3.org/2000/svg">
		<path d="M47.9895 48.649C47.6747 48.345 47.2819 48.1308 46.853 48.0295C46.4242 47.9281 45.9755 47.9434 45.5548 48.0736L40.9287 43.494C44.5127 39.5218 46.3839 34.3307 46.1454 29.0223C45.9069 23.7138 43.5773 18.7058 39.6511 15.0609C35.7248 11.4159 30.5109 9.42097 25.1156 9.49929C19.7203 9.57761 14.5683 11.7231 10.7529 15.4804C6.93743 19.2377 4.75879 24.3112 4.67926 29.6242C4.59973 34.9373 6.62556 40.0718 10.3269 43.9382C14.0282 47.8047 19.1138 50.0987 24.5043 50.3336C29.8949 50.5685 35.1663 48.7258 39.2 45.1964L43.8504 49.7759C43.7412 50.1731 43.7375 50.5912 43.8399 50.9902C43.9422 51.3891 44.1471 51.7553 44.4348 52.0537L49.7913 57.3047C50.2448 57.7476 50.8569 57.9974 51.4956 58C51.8161 58.0018 52.1337 57.9413 52.4304 57.822C52.727 57.7027 52.9968 57.5269 53.2243 57.3047C53.6778 56.8554 53.9324 56.2477 53.9324 55.6143C53.9324 54.9809 53.6778 54.3732 53.2243 53.9239L47.9895 48.649ZM12.6609 42.6788C10.1048 40.1648 8.36332 36.9606 7.65688 33.4717C6.95043 29.9828 7.31073 26.366 8.69219 23.0788C10.0736 19.7916 12.4142 16.9818 15.4176 15.0048C18.4211 13.0279 21.9526 11.9726 25.5652 11.9726C29.1778 11.9726 32.7093 13.0279 35.7128 15.0048C38.7162 16.9818 41.0568 19.7916 42.4382 23.0788C43.8197 26.366 44.18 29.9828 43.4735 33.4717C42.7671 36.9606 41.0257 40.1648 38.4695 42.6788C36.7758 44.3491 34.7643 45.6742 32.55 46.5783C30.3358 47.4825 27.9622 47.9478 25.5652 47.9478C23.1682 47.9478 20.7946 47.4825 18.5804 46.5783C16.3661 45.6742 14.3546 44.3491 12.6609 42.6788Z" fill="#865CD0"/>
		<path d="M16.1913 29.6114C16.3006 29.7261 16.4326 29.8175 16.5792 29.88C16.7257 29.9424 16.8838 29.9747 17.0435 29.9747C17.2032 29.9747 17.3612 29.9424 17.5078 29.88C17.6543 29.8175 17.7864 29.7261 17.8957 29.6114L19.4783 28.0769L21.0609 29.6114C21.1702 29.7261 21.3022 29.8175 21.4487 29.88C21.5953 29.9424 21.7533 29.9747 21.913 29.9747C22.0728 29.9747 22.2308 29.9424 22.3773 29.88C22.5239 29.8175 22.6559 29.7261 22.7652 29.6114C22.8817 29.5038 22.9745 29.3738 23.0379 29.2294C23.1014 29.0851 23.1341 28.9295 23.1341 28.7722C23.1341 28.6149 23.1014 28.4593 23.0379 28.315C22.9745 28.1706 22.8817 28.0406 22.7652 27.933L21.207 26.3745L22.7652 24.816C22.9912 24.5935 23.1182 24.2916 23.1182 23.9768C23.1182 23.6621 22.9912 23.3602 22.7652 23.1376C22.5392 22.9151 22.2327 22.79 21.913 22.79C21.5934 22.79 21.2869 22.9151 21.0609 23.1376L19.4783 24.6722L17.8957 23.1376C17.6696 22.9151 17.3631 22.79 17.0435 22.79C16.7238 22.79 16.4173 22.9151 16.1913 23.1376C15.9653 23.3602 15.8383 23.6621 15.8383 23.9768C15.8383 24.2916 15.9653 24.5935 16.1913 24.816L17.7496 26.3745L16.1913 27.933C16.0748 28.0406 15.982 28.1706 15.9186 28.315C15.8551 28.4593 15.8224 28.6149 15.8224 28.7722C15.8224 28.9295 15.8551 29.0851 15.9186 29.2294C15.982 29.3738 16.0748 29.5038 16.1913 29.6114Z" fill="#865CD0"/>
		<path d="M28.3652 29.6114C28.4745 29.7261 28.6065 29.8175 28.7531 29.88C28.8996 29.9424 29.0577 29.9747 29.2174 29.9747C29.3771 29.9747 29.5351 29.9424 29.6817 29.88C29.8282 29.8175 29.9602 29.7261 30.0695 29.6114L31.6521 28.0769L33.2348 29.6114C33.344 29.7261 33.4761 29.8175 33.6226 29.88C33.7692 29.9424 33.9272 29.9747 34.0869 29.9747C34.2466 29.9747 34.4047 29.9424 34.5512 29.88C34.6978 29.8175 34.8298 29.7261 34.9391 29.6114C35.0556 29.5038 35.1484 29.3738 35.2118 29.2294C35.2753 29.0851 35.308 28.9295 35.308 28.7722C35.308 28.6149 35.2753 28.4593 35.2118 28.315C35.1484 28.1706 35.0556 28.0406 34.9391 27.933L33.3808 26.3745L34.9391 24.816C35.051 24.7058 35.1398 24.575 35.2003 24.431C35.2609 24.287 35.2921 24.1327 35.2921 23.9768C35.2921 23.821 35.2609 23.6667 35.2003 23.5227C35.1398 23.3787 35.051 23.2478 34.9391 23.1376C34.8272 23.0274 34.6943 22.94 34.5481 22.8804C34.4019 22.8207 34.2452 22.79 34.0869 22.79C33.9287 22.79 33.7719 22.8207 33.6257 22.8804C33.4795 22.94 33.3467 23.0274 33.2348 23.1376L31.6521 24.6722L30.0695 23.1376C29.8435 22.9151 29.537 22.79 29.2174 22.79C28.8977 22.79 28.5912 22.9151 28.3652 23.1376C28.1392 23.3602 28.0122 23.6621 28.0122 23.9768C28.0122 24.2916 28.1392 24.5935 28.3652 24.816L29.9235 26.3745L28.3652 27.933C28.2487 28.0406 28.1559 28.1706 28.0925 28.315C28.029 28.4593 27.9963 28.6149 27.9963 28.7722C27.9963 28.9295 28.029 29.0851 28.0925 29.2294C28.1559 29.3738 28.2487 29.5038 28.3652 29.6114Z" fill="#865CD0"/>
		<path d="M35.3044 33.5674H15.8261C15.5032 33.5674 15.1936 33.6937 14.9653 33.9185C14.737 34.1433 14.6087 34.4483 14.6087 34.7662C14.6087 35.0842 14.737 35.3891 14.9653 35.6139C15.1936 35.8388 15.5032 35.9651 15.8261 35.9651H19.4783V39.5616C19.4783 40.5155 19.8631 41.4302 20.548 42.1047C21.2329 42.7792 22.1618 43.1581 23.1304 43.1581C24.0991 43.1581 25.028 42.7792 25.7129 42.1047C26.3978 41.4302 26.7826 40.5155 26.7826 39.5616V35.9651H35.3044C35.6272 35.9651 35.9369 35.8388 36.1652 35.6139C36.3935 35.3891 36.5218 35.0842 36.5218 34.7662C36.5218 34.4483 36.3935 34.1433 36.1652 33.9185C35.9369 33.6937 35.6272 33.5674 35.3044 33.5674ZM24.3478 39.5616C24.3478 39.8795 24.2196 40.1845 23.9913 40.4093C23.763 40.6341 23.4533 40.7604 23.1304 40.7604C22.8076 40.7604 22.4979 40.6341 22.2696 40.4093C22.0413 40.1845 21.9131 39.8795 21.9131 39.5616V35.9651H24.3478V39.5616Z" fill="#865CD0"/>
		<path d="M49.9131 2.39795C48.7092 2.39795 47.5323 2.7495 46.5313 3.40816C45.5303 4.06681 44.7502 5.00298 44.2895 6.09827C43.8287 7.19357 43.7082 8.39881 43.9431 9.56157C44.1779 10.7243 44.7577 11.7924 45.6089 12.6307C46.4602 13.469 47.5448 14.0399 48.7256 14.2712C49.9063 14.5025 51.1302 14.3838 52.2424 13.9301C53.3547 13.4764 54.3053 12.7081 54.9742 11.7224C55.643 10.7366 56 9.5777 56 8.39216C56 6.80239 55.3587 5.27774 54.2172 4.15361C53.0757 3.02948 51.5274 2.39795 49.9131 2.39795ZM49.9131 11.9887C49.1907 11.9887 48.4846 11.7778 47.884 11.3826C47.2834 10.9874 46.8153 10.4257 46.5389 9.76849C46.2625 9.11131 46.1902 8.38817 46.3311 7.69051C46.472 6.99285 46.8198 6.35201 47.3306 5.84903C47.8414 5.34605 48.4921 5.00351 49.2006 4.86474C49.909 4.72597 50.6433 4.79719 51.3107 5.0694C51.978 5.34161 52.5484 5.80259 52.9497 6.39404C53.351 6.98548 53.5652 7.68083 53.5652 8.39216C53.5652 9.34602 53.1805 10.2608 52.4955 10.9353C51.8106 11.6098 50.8817 11.9887 49.9131 11.9887Z" fill="#865CD0"/>
		<path d="M9.73913 4.79537C9.73913 3.84694 9.45354 2.9198 8.91846 2.13121C8.38339 1.34261 7.62287 0.727978 6.73307 0.365028C5.84327 0.00207774 4.86417 -0.0928865 3.91956 0.0921438C2.97496 0.277174 2.10729 0.733889 1.42627 1.40453C0.745244 2.07518 0.281463 2.92963 0.0935695 3.85984C-0.0943237 4.79005 0.00210989 5.75424 0.370676 6.63048C0.739242 7.50672 1.36339 8.25565 2.16418 8.78257C2.96498 9.30949 3.90646 9.59074 4.86957 9.59074C6.16106 9.59074 7.39965 9.08551 8.31287 8.18621C9.22609 7.2869 9.73913 6.06718 9.73913 4.79537ZM2.43479 4.79537C2.43479 4.32115 2.57758 3.85759 2.84512 3.46329C3.11266 3.06899 3.49292 2.76167 3.93782 2.5802C4.38272 2.39872 4.87227 2.35124 5.34457 2.44376C5.81687 2.53627 6.25071 2.76463 6.59122 3.09995C6.93173 3.43527 7.16362 3.8625 7.25757 4.3276C7.35151 4.79271 7.3033 5.2748 7.11901 5.71292C6.93473 6.15104 6.62266 6.52551 6.22226 6.78897C5.82186 7.05243 5.35112 7.19305 4.86957 7.19305C4.22382 7.19305 3.60453 6.94044 3.14792 6.49079C2.69131 6.04113 2.43479 5.43127 2.43479 4.79537Z" fill="#865CD0"/>
		<path d="M8.52171 52.7492H7.30432V51.5504C7.30432 51.2325 7.17606 50.9275 6.94775 50.7027C6.71945 50.4779 6.4098 50.3516 6.08693 50.3516C5.76406 50.3516 5.45441 50.4779 5.2261 50.7027C4.9978 50.9275 4.86954 51.2325 4.86954 51.5504V52.7492H3.65214C3.32927 52.7492 3.01962 52.8755 2.79132 53.1004C2.56301 53.3252 2.43475 53.6301 2.43475 53.9481C2.43475 54.266 2.56301 54.571 2.79132 54.7958C3.01962 55.0206 3.32927 55.1469 3.65214 55.1469H4.86954V56.3458C4.86954 56.6637 4.9978 56.9686 5.2261 57.1935C5.45441 57.4183 5.76406 57.5446 6.08693 57.5446C6.4098 57.5446 6.71945 57.4183 6.94775 57.1935C7.17606 56.9686 7.30432 56.6637 7.30432 56.3458V55.1469H8.52171C8.84458 55.1469 9.15423 55.0206 9.38254 54.7958C9.61084 54.571 9.7391 54.266 9.7391 53.9481C9.7391 53.6301 9.61084 53.3252 9.38254 53.1004C9.15423 52.8755 8.84458 52.7492 8.52171 52.7492Z" fill="#865CD0"/>
	</svg>

	<svg id="noPastEvent" width="56" height="56" viewBox="0 0 56 56" fill="none" xmlns="http://www.w3.org/2000/svg">
		<path d="M13.3913 0C12.7189 0 12.1739 0.545044 12.1739 1.21739V6.88587C10.4252 7.41711 9.13043 9.04307 9.13043 10.9565C9.13043 13.2953 11.0525 15.2174 13.3913 15.2174C15.7301 15.2174 17.6522 13.2953 17.6522 10.9565C17.6522 9.04307 16.3574 7.41711 14.6087 6.88587V1.21739C14.6087 0.545044 14.0637 0 13.3913 0ZM36.5217 0C35.8494 0 35.3043 0.545044 35.3043 1.21739V6.88587C33.5556 7.41711 32.2609 9.04307 32.2609 10.9565C32.2609 13.2953 34.1829 15.2174 36.5217 15.2174C38.8605 15.2174 40.7826 13.2953 40.7826 10.9565C40.7826 9.04307 39.4879 7.41711 37.7391 6.88587V1.21739C37.7391 0.545044 37.1941 0 36.5217 0ZM6.10595 2.43478C2.74528 2.43478 0 5.18009 0 8.54076V45.0245C0 48.3851 2.74522 51.1304 6.10595 51.1304H37.8342C39.5219 54.0395 42.6671 56 46.2609 56C51.6252 56 56 51.6252 56 46.2609C56 42.1866 53.4771 38.675 49.913 37.2255V8.54076C49.913 5.18009 47.1677 2.43478 43.8071 2.43478H40.1739C40.0126 2.4325 39.8524 2.4623 39.7027 2.52246C39.553 2.58262 39.4168 2.67193 39.3019 2.7852C39.187 2.89847 39.0958 3.03344 39.0335 3.18228C38.9713 3.33111 38.9392 3.49084 38.9392 3.65217C38.9392 3.81351 38.9713 3.97324 39.0335 4.12207C39.0958 4.2709 39.187 4.40588 39.3019 4.51915C39.4168 4.63242 39.553 4.72173 39.7027 4.78189C39.8524 4.84204 40.0126 4.87185 40.1739 4.86957H43.8071C45.8586 4.86957 47.4783 6.48915 47.4783 8.54076V17.0435H2.43478V8.54076C2.43478 6.48915 4.05428 4.86957 6.10595 4.86957H9.73913C9.90045 4.87185 10.0606 4.84204 10.2103 4.78189C10.36 4.72173 10.4963 4.63242 10.6111 4.51915C10.726 4.40588 10.8173 4.2709 10.8795 4.12207C10.9418 3.97324 10.9739 3.81351 10.9739 3.65217C10.9739 3.49084 10.9418 3.33111 10.8795 3.18228C10.8173 3.03344 10.726 2.89847 10.6111 2.7852C10.4963 2.67193 10.36 2.58262 10.2103 2.52246C10.0606 2.4623 9.90045 2.4325 9.73913 2.43478H6.10595ZM17.0435 2.43478C16.3711 2.43478 15.8261 2.97981 15.8261 3.65217C15.8261 4.32454 16.3711 4.86957 17.0435 4.86957H32.8696C33.5419 4.86957 34.087 4.32454 34.087 3.65217C34.087 2.97981 33.5419 2.43478 32.8696 2.43478H17.0435ZM13.3913 9.13043C14.4143 9.13043 15.2174 9.93358 15.2174 10.9565C15.2174 11.9795 14.4143 12.7826 13.3913 12.7826C12.3684 12.7826 11.5652 11.9795 11.5652 10.9565C11.5652 9.93358 12.3684 9.13043 13.3913 9.13043ZM36.5217 9.13043C37.5447 9.13043 38.3478 9.93358 38.3478 10.9565C38.3478 11.9795 37.5447 12.7826 36.5217 12.7826C35.4988 12.7826 34.6957 11.9795 34.6957 10.9565C34.6957 9.93358 35.4988 9.13043 36.5217 9.13043ZM2.43478 19.4783H47.4783V36.6168C47.0772 36.5663 46.6753 36.5217 46.2609 36.5217C40.8965 36.5217 36.5217 40.8965 36.5217 46.2609C36.5217 47.1031 36.6425 47.9153 36.8451 48.6956H6.10595C4.0544 48.6956 2.43478 47.0761 2.43478 45.0245V19.4783ZM46.2609 38.9565C47.8471 38.9565 49.308 39.4556 50.5027 40.307L40.3071 50.5217C39.4502 49.3248 38.9565 47.8525 38.9565 46.2609C38.9565 42.2124 42.2124 38.9565 46.2609 38.9565ZM52.2146 42C53.0715 43.1969 53.5652 44.6692 53.5652 46.2609C53.5652 50.3094 50.3094 53.5652 46.2609 53.5652C44.6747 53.5652 43.2137 53.0661 42.019 52.2147L52.2146 42Z" fill="#865CD0"/>
	</svg>

	<svg id="rightArrow" width="6" height="12" viewBox="0 0 6 12" fill="none" xmlns="http://www.w3.org/2000/svg">
		<path d="M0.750001 1.5L5.25 6L0.75 10.5" stroke="#865CD0" stroke-width="1.5" stroke-linecap="round" stroke-linejoin="round"/>
	</svg>



</svg>
